<svg xmlns="http://www.w3.org/2000/svg" xmlns:xlink="http://www.w3.org/1999/xlink" version="1.1" width="256" height="256" viewBox="0 0 256 256" xml:space="preserve">

<defs>
</defs>
<g style="stroke: none; stroke-width: 0; stroke-dasharray: none; stroke-linecap: butt; stroke-linejoin: miter; stroke-miterlimit: 10; fill: none; fill-rule: nonzero; opacity: 1;" transform="translate(1.4065934065934016 1.4065934065934016) scale(2.81 2.81)" >
	<path d="M 52.95 70.68 c -0.514 0 -1.031 -0.067 -1.542 -0.204 c -1.527 -0.409 -2.805 -1.39 -3.596 -2.76 c -0.36 -0.623 -1.022 -0.999 -1.752 -0.954 c -0.692 0.033 -1.403 0.033 -2.111 0 c -0.733 -0.036 -1.4 0.33 -1.759 0.952 c -0.792 1.371 -2.069 2.352 -3.597 2.762 c -1.53 0.408 -3.126 0.199 -4.496 -0.593 l -5.195 -2.999 c -2.828 -1.634 -3.8 -5.263 -2.167 -8.091 c 0.36 -0.624 0.328 -1.411 -0.085 -2.056 c -0.176 -0.274 -0.349 -0.558 -0.515 -0.845 c -0.165 -0.286 -0.323 -0.575 -0.473 -0.865 c -0.353 -0.682 -1.019 -1.104 -1.739 -1.104 c -3.266 0 -5.923 -2.657 -5.923 -5.923 v -6 c 0 -3.266 2.657 -5.923 5.923 -5.923 c 0.721 0 1.375 -0.4 1.706 -1.045 c 0.319 -0.622 0.674 -1.237 1.056 -1.83 c 0.392 -0.607 0.411 -1.371 0.051 -1.994 c -0.792 -1.37 -1.003 -2.966 -0.594 -4.495 s 1.389 -2.806 2.76 -3.597 l 5.196 -3 c 1.369 -0.792 2.965 -1.002 4.494 -0.592 c 1.528 0.41 2.806 1.39 3.597 2.76 c 0.361 0.624 1.048 0.985 1.752 0.956 c 0.69 -0.035 1.402 -0.035 2.114 0 c 0.716 0.03 1.396 -0.33 1.758 -0.954 c 0.79 -1.37 2.067 -2.351 3.596 -2.76 c 1.525 -0.412 3.124 -0.2 4.495 0.591 l 5.195 3 c 1.37 0.791 2.35 2.067 2.76 3.596 c 0.409 1.528 0.199 3.125 -0.593 4.495 c -0.359 0.624 -0.327 1.411 0.085 2.055 c 0.177 0.274 0.351 0.559 0.517 0.849 c 0.163 0.281 0.322 0.571 0.474 0.864 c 0.351 0.679 1.017 1.101 1.737 1.101 C 69.343 36.077 72 38.734 72 42 v 6 c 0 3.266 -2.657 5.923 -5.923 5.923 c -0.721 0 -1.374 0.4 -1.705 1.045 c -0.32 0.622 -0.676 1.238 -1.058 1.832 c -0.391 0.605 -0.409 1.369 -0.05 1.992 c 0.792 1.37 1.003 2.967 0.594 4.495 s -1.39 2.806 -2.76 3.597 l -5.196 3 C 54.99 70.41 53.977 70.68 52.95 70.68 z M 46.159 62.759 c 2.111 0 4.053 1.114 5.116 2.956 c 0.257 0.445 0.672 0.764 1.168 0.897 c 0.498 0.132 1.015 0.063 1.458 -0.192 l 5.197 -3.001 c 0.445 -0.257 0.763 -0.671 0.896 -1.167 c 0.134 -0.496 0.065 -1.014 -0.191 -1.459 c -1.114 -1.927 -1.058 -4.287 0.148 -6.159 c 0.312 -0.484 0.602 -0.986 0.862 -1.494 c 1.02 -1.984 3.036 -3.217 5.262 -3.217 C 67.137 49.923 68 49.061 68 48 v -6 c 0 -1.06 -0.862 -1.923 -1.923 -1.923 c -2.222 0 -4.249 -1.25 -5.291 -3.264 c -0.123 -0.238 -0.251 -0.472 -0.385 -0.704 c -0.137 -0.237 -0.273 -0.463 -0.416 -0.684 c -1.227 -1.913 -1.296 -4.294 -0.185 -6.218 c 0.258 -0.445 0.326 -0.963 0.192 -1.459 c -0.133 -0.496 -0.45 -0.911 -0.896 -1.167 l -5.195 -3.001 c -0.92 -0.53 -2.098 -0.215 -2.627 0.704 c -1.112 1.929 -3.184 3.063 -5.417 2.951 c -0.579 -0.028 -1.159 -0.028 -1.721 0 c -2.237 0.106 -4.3 -1.022 -5.413 -2.95 c -0.257 -0.445 -0.672 -0.764 -1.169 -0.897 c -0.496 -0.132 -1.014 -0.065 -1.458 0.192 l -5.196 3 c -0.445 0.257 -0.763 0.672 -0.896 1.168 c -0.133 0.496 -0.064 1.014 0.192 1.458 c 1.114 1.928 1.057 4.289 -0.15 6.161 c -0.31 0.482 -0.6 0.985 -0.861 1.493 c -1.02 1.984 -3.036 3.217 -5.262 3.217 C 22.863 40.077 22 40.94 22 42 v 6 c 0 1.061 0.863 1.923 1.923 1.923 c 2.222 0 4.249 1.25 5.291 3.263 c 0.123 0.236 0.252 0.473 0.387 0.706 c 0.134 0.232 0.273 0.461 0.417 0.685 c 1.225 1.911 1.294 4.292 0.182 6.217 c -0.529 0.917 -0.214 2.096 0.704 2.625 l 5.196 3 c 0.445 0.259 0.963 0.327 1.459 0.192 c 0.496 -0.133 0.911 -0.45 1.167 -0.896 c 1.114 -1.929 3.189 -3.06 5.418 -2.95 c 0.578 0.029 1.16 0.029 1.724 0 C 45.964 62.762 46.062 62.759 46.159 62.759 z M 45.016 56.003 c -0.956 0 -1.917 -0.126 -2.864 -0.38 c -2.837 -0.76 -5.209 -2.58 -6.678 -5.124 c -1.469 -2.544 -1.859 -5.508 -1.099 -8.346 c 0.76 -2.837 2.581 -5.209 5.125 -6.678 c 2.544 -1.468 5.507 -1.86 8.346 -1.099 c 2.837 0.76 5.209 2.58 6.678 5.125 s 1.859 5.508 1.099 8.346 c -0.76 2.837 -2.58 5.209 -5.124 6.678 C 48.804 55.503 46.922 56.003 45.016 56.003 z M 44.988 37.999 c -1.213 0 -2.41 0.318 -3.488 0.94 c -1.619 0.935 -2.777 2.444 -3.261 4.25 s -0.235 3.691 0.699 5.311 s 2.444 2.776 4.249 3.261 c 1.808 0.482 3.691 0.235 5.311 -0.7 l 0 0 c 1.619 -0.935 2.776 -2.443 3.261 -4.248 c 0.483 -1.806 0.235 -3.692 -0.7 -5.311 c -0.935 -1.619 -2.443 -2.777 -4.248 -3.261 C 46.207 38.078 45.596 37.999 44.988 37.999 z" style="stroke: none; stroke-width: 1; stroke-dasharray: none; stroke-linecap: butt; stroke-linejoin: miter; stroke-miterlimit: 10; fill: rgb(0,0,0); fill-rule: nonzero; opacity: 1;" transform=" matrix(1 0 0 1 0 0) " stroke-linecap="round" />
	<path d="M 45 90 C 20.187 90 0 69.813 0 45 C 0 20.187 20.187 0 45 0 c 24.813 0 45 20.187 45 45 C 90 69.813 69.813 90 45 90 z M 45 4 C 22.393 4 4 22.393 4 45 s 18.393 41 41 41 s 41 -18.393 41 -41 S 67.607 4 45 4 z" style="stroke: none; stroke-width: 1; stroke-dasharray: none; stroke-linecap: butt; stroke-linejoin: miter; stroke-miterlimit: 10; fill: rgb(0,0,0); fill-rule: nonzero; opacity: 1;" transform=" matrix(1 0 0 1 0 0) " stroke-linecap="round" />
</g>
</svg>